<svg width="104" height="32" viewBox="0 0 104 32" fill="none" xmlns="http://www.w3.org/2000/svg">
<g id="Arrow">
<g id="Group 1">
<path id="Squircle" d="M0.00012207 16C0.00012207 2.824 2.82412 0 16.0001 0C29.1761 0 32.0001 2.824 32.0001 16C32.0001 29.176 29.1761 32 16.0001 32C2.82412 32 0.00012207 29.176 0.00012207 16Z" fill="#222222"/>
<path id="Vector" d="M16.0001 0C2.82412 0 0.00012207 2.75248 0.00012207 15.5948C0.00012207 25.6343 1.72598 29.5076 8.77425 30.72C7.02926 28.8363 5.92953 26.2131 5.92953 22.8065C6.08012 16.8424 9.71981 11.4531 14.9648 9.05322C14.9648 9.05322 13.7601 8.10929 9.92012 7.7974L20.9601 5.14628L19.2001 13.7234C18.1178 10.8139 16.5272 10.0723 16.5272 10.0723C16.5272 10.0723 14.7201 13.0996 14.7201 16.5305C14.7201 25.4349 19.4751 28.1303 26.7107 28.1303C28.3368 28.1303 29.5803 27.3519 30.4167 26.163C31.6041 23.7983 32.0001 20.4041 32.0001 15.5948C32.0001 2.75248 29.1761 0 16.0001 0Z" fill="url(#paint0_linear_0_1)"/>
</g>
<g id="logo">
<path d="M42.1073 7.24047C42.4514 7.19132 42.7791 7.15855 43.0904 7.14217C43.4017 7.1094 43.7457 7.09302 44.1225 7.09302C44.4502 7.09302 44.7697 7.1094 45.081 7.14217C45.3923 7.15855 45.7364 7.19132 46.1132 7.24047L51.6428 24.9106C50.9711 25.0089 50.3157 25.0581 49.6767 25.0581C49.0541 25.0581 48.4479 25.0089 47.8581 24.9106L46.8751 21.3717H41.026L40.0184 24.9106C39.4285 25.0089 38.8633 25.0581 38.3226 25.0581C37.7164 25.0581 37.1184 25.0089 36.5286 24.9106L42.1073 7.24047ZM46.0395 18.398L43.9997 10.976L41.8616 18.398H46.0395Z" fill="currentColor"/>
<path d="M53.2339 12.2048C53.4797 12.1557 53.709 12.1229 53.922 12.1065C54.1514 12.0738 54.3972 12.0574 54.6593 12.0574C54.9051 12.0574 55.1426 12.0738 55.372 12.1065C55.6178 12.1393 55.8553 12.1802 56.0847 12.2294C56.1339 12.3113 56.1748 12.4342 56.2076 12.598C56.2568 12.7455 56.2977 12.9093 56.3305 13.0896C56.3633 13.2534 56.3878 13.4254 56.4042 13.6057C56.437 13.7695 56.4616 13.9088 56.4779 14.0234C56.8384 13.5155 57.2808 13.065 57.805 12.6718C58.3293 12.2622 58.9847 12.0574 59.7711 12.0574C59.935 12.0574 60.1234 12.0656 60.3364 12.0819C60.5494 12.0983 60.705 12.1229 60.8033 12.1557C60.8361 12.3195 60.8607 12.5079 60.877 12.7209C60.8934 12.9339 60.9016 13.1551 60.9016 13.3845C60.9016 13.663 60.8852 13.9661 60.8525 14.2938C60.8361 14.6215 60.7951 14.9328 60.7296 15.2277C60.5494 15.1949 60.3446 15.1785 60.1152 15.1785C59.9022 15.1785 59.7711 15.1785 59.722 15.1785C59.4434 15.1785 59.1321 15.2113 58.7881 15.2768C58.444 15.326 58.1163 15.4734 57.805 15.7192C57.4937 15.965 57.2316 16.3336 57.0186 16.8251C56.822 17.3166 56.7237 18.0048 56.7237 18.8895V24.9352C56.4288 24.9843 56.1339 25.0171 55.839 25.0335C55.5441 25.0499 55.2573 25.0581 54.9788 25.0581C54.7003 25.0581 54.4136 25.0499 54.1186 25.0335C53.8401 25.0171 53.5452 24.9843 53.2339 24.9352V12.2048Z" fill="currentColor"/>
<path d="M62.7287 12.2048C62.9745 12.1557 63.2038 12.1229 63.4168 12.1065C63.6462 12.0738 63.892 12.0574 64.1541 12.0574C64.3999 12.0574 64.6374 12.0738 64.8668 12.1065C65.1126 12.1393 65.3501 12.1802 65.5795 12.2294C65.6287 12.3113 65.6696 12.4342 65.7024 12.598C65.7515 12.7455 65.7925 12.9093 65.8253 13.0896C65.858 13.2534 65.8826 13.4254 65.899 13.6057C65.9318 13.7695 65.9563 13.9088 65.9727 14.0234C66.3332 13.5155 66.7755 13.065 67.2998 12.6718C67.8241 12.2622 68.4795 12.0574 69.2659 12.0574C69.4297 12.0574 69.6182 12.0656 69.8312 12.0819C70.0441 12.0983 70.1998 12.1229 70.2981 12.1557C70.3309 12.3195 70.3554 12.5079 70.3718 12.7209C70.3882 12.9339 70.3964 13.1551 70.3964 13.3845C70.3964 13.663 70.38 13.9661 70.3473 14.2938C70.3309 14.6215 70.2899 14.9328 70.2244 15.2277C70.0442 15.1949 69.8394 15.1785 69.61 15.1785C69.397 15.1785 69.2659 15.1785 69.2168 15.1785C68.9382 15.1785 68.6269 15.2113 68.2829 15.2768C67.9388 15.326 67.6111 15.4734 67.2998 15.7192C66.9885 15.965 66.7264 16.3336 66.5134 16.8251C66.3168 17.3166 66.2185 18.0048 66.2185 18.8895V24.9352C65.9236 24.9843 65.6287 25.0171 65.3337 25.0335C65.0388 25.0499 64.7521 25.0581 64.4736 25.0581C64.1951 25.0581 63.9083 25.0499 63.6134 25.0335C63.3349 25.0171 63.04 24.9843 62.7287 24.9352V12.2048Z" fill="currentColor"/>
<path d="M77.2456 25.2055C76.2134 25.2055 75.3123 25.0417 74.5423 24.714C73.7886 24.3699 73.1578 23.903 72.6499 23.3132C72.1584 22.707 71.7816 22.0025 71.5194 21.1996C71.2737 20.3968 71.1508 19.5285 71.1508 18.5946C71.1508 17.6607 71.2737 16.7842 71.5194 15.965C71.7816 15.1458 72.1584 14.4412 72.6499 13.8514C73.1578 13.2452 73.7886 12.7701 74.5423 12.426C75.3123 12.0819 76.2134 11.9099 77.2456 11.9099C78.2778 11.9099 79.1789 12.0819 79.949 12.426C80.719 12.7701 81.358 13.2452 81.8659 13.8514C82.3738 14.4412 82.7506 15.1458 82.9964 15.965C83.2422 16.7842 83.365 17.6607 83.365 18.5946C83.365 19.5285 83.2422 20.3968 82.9964 21.1996C82.7506 22.0025 82.3738 22.707 81.8659 23.3132C81.358 23.903 80.719 24.3699 79.949 24.714C79.1789 25.0417 78.2778 25.2055 77.2456 25.2055ZM77.2456 22.5513C78.1631 22.5513 78.8185 22.2155 79.2117 21.5437C79.6213 20.8556 79.8261 19.8725 79.8261 18.5946C79.8261 17.3166 79.6213 16.3418 79.2117 15.67C78.8185 14.9819 78.1631 14.6378 77.2456 14.6378C76.3445 14.6378 75.6891 14.9819 75.2795 15.67C74.8863 16.3418 74.6897 17.3166 74.6897 18.5946C74.6897 19.8725 74.8863 20.8556 75.2795 21.5437C75.6891 22.2155 76.3445 22.5513 77.2456 22.5513Z" fill="currentColor"/>
<path d="M83.818 12.2294C84.1948 12.1475 84.5471 12.0983 84.8747 12.0819C85.2188 12.0656 85.5055 12.0574 85.7349 12.0574C86.0626 12.0574 86.3821 12.0656 86.6934 12.0819C87.0047 12.0983 87.2996 12.1393 87.5781 12.2048L89.6179 21.5929L91.9772 12.2048C92.4851 12.1065 93.0422 12.0574 93.6484 12.0574C94.0744 12.0738 94.4266 12.0901 94.7051 12.1065C94.9837 12.1229 95.2294 12.1557 95.4424 12.2048L97.7526 21.4208L99.7678 12.2048C100.046 12.1557 100.308 12.1229 100.554 12.1065C100.8 12.0738 101.079 12.0574 101.39 12.0574C101.619 12.0574 101.89 12.0656 102.201 12.0819C102.529 12.0983 102.889 12.1475 103.282 12.2294L99.3254 24.9106C99.0305 24.9598 98.711 24.9925 98.367 25.0089C98.0393 25.0253 97.7608 25.0335 97.5314 25.0335C97.2856 25.0335 97.0071 25.0253 96.6958 25.0089C96.4009 24.9925 96.1142 24.9516 95.8356 24.886L93.5255 16.481L91.1416 24.9106C90.8303 24.9598 90.5026 24.9925 90.1586 25.0089C89.8309 25.0253 89.5524 25.0335 89.323 25.0335C89.0936 25.0335 88.8233 25.0253 88.512 25.0089C88.2171 24.9925 87.9304 24.9516 87.6518 24.886L83.818 12.2294Z" fill="currentColor"/>
</g>
</g>
<defs>
<linearGradient id="paint0_linear_0_1" x1="15.9989" y1="30.72" x2="15.9989" y2="0" gradientUnits="userSpaceOnUse">
<stop stop-color="#FFC430"/>
<stop offset="1" stop-color="#FFEC5C"/>
</linearGradient>
</defs>
</svg>
